<?xml version="1.0" encoding="iso-8859-1"?>
<!-- Uploaded to: SVG Repo, www.svgrepo.com, Generator: SVG Repo Mixer Tools -->
<svg version="1.1" id="Layer_1" xmlns="http://www.w3.org/2000/svg" xmlns:xlink="http://www.w3.org/1999/xlink" 
	 viewBox="0 0 512 512" xml:space="preserve">
<rect x="67.544" y="4" style="fill:#FFFFFF;" width="376.96" height="504"/>
<path style="fill:#CCCCCC;" d="M440.456,8v496H71.544V8H440.456 M448.456,0H63.544v512h384.912V0z"/>
<path d="M130.576,117.512l85.6-39.752v18.896L151.464,125v0.36l64.712,28.344V172.6l-85.6-39.752L130.576,117.512z"/>
<path d="M229.352,179.728L267.504,50.48h18.008L247.36,179.728H229.352z"/>
<path d="M381.424,133.376l-85.6,39.2v-18.872L362,125.36V125l-66.136-28.344V77.76l85.6,39.2L381.424,133.376z"/>
<g>
	<path style="fill:#E21B1B;" d="M196.936,275.288l18.176,2.928c-2.472,7.336-7.104,13.752-13.296,18.4
		c-5.944,4.248-13.096,6.464-20.4,6.328c-7.784,0.4-15.384-2.456-20.976-7.888c-5.408-5.888-8.208-13.712-7.76-21.696
		c-0.032-7.368,1.568-14.648,4.696-21.312c3.024-6.568,7.952-12.08,14.144-15.808c6.232-3.824,13.408-5.824,20.72-5.768
		c7.08-0.36,14.048,1.92,19.544,6.4c4.872,4.272,7.832,10.328,8.208,16.8L202.2,255.56c-0.128-3.176-1.384-6.2-3.544-8.536
		c-2.072-1.88-4.8-2.856-7.592-2.736c-3.744,0.04-7.344,1.464-10.104,4c-3.488,3.272-5.976,7.464-7.2,12.088
		c-1.592,4.872-2.432,9.96-2.504,15.088c-0.224,3.416,0.848,6.792,3,9.448c1.88,2.168,4.624,3.384,7.496,3.328
		c3.176-0.064,6.232-1.216,8.664-3.256C193.456,282.432,195.72,279.072,196.936,275.288z"/>
	<path style="fill:#E21B1B;" d="M221.816,282l18.12-2.864c2.048,6.832,8.68,11.232,15.768,10.464
		c3.632,0.184,7.216-0.824,10.224-2.864c1.632-1.04,2.64-2.824,2.672-4.76c0-1.264-0.488-2.48-1.368-3.392
		c-2.352-1.632-4.984-2.816-7.76-3.512c-7.36-1.992-14.416-4.976-20.976-8.864c-4.112-3.168-6.456-8.104-6.32-13.288
		c-0.048-5.368,2.176-10.504,6.128-14.144c7.024-5.992,16.136-8.968,25.344-8.28c7.072-0.472,14.128,1.232,20.2,4.888
		c4.48,3.128,7.584,7.864,8.664,13.224l-17.264,3c-0.776-2.344-2.344-4.352-4.432-5.672c-3.048-1.76-6.52-2.64-10.04-2.536
		c-2.952-0.248-5.896,0.432-8.44,1.952c-1.544,0.992-2.504,2.672-2.568,4.504c0.032,1.792,1.024,3.432,2.6,4.296
		c3.384,1.536,6.896,2.752,10.496,3.648c6.528,1.48,12.728,4.136,18.312,7.824c4.088,3.088,6.496,7.912,6.512,13.032
		c-0.04,6.648-3.08,12.928-8.272,17.08c-6.632,5.176-14.936,7.736-23.328,7.2c-8.104,0.488-16.176-1.424-23.2-5.504
		C227.472,293.776,223.544,288.304,221.816,282z"/>
	<path style="fill:#E21B1B;" d="M296,282l18.12-2.864c2.048,6.848,8.704,11.248,15.808,10.464c3.632,0.184,7.216-0.824,10.224-2.864
		c1.632-1.04,2.64-2.824,2.672-4.76c0-1.264-0.488-2.48-1.368-3.392c-2.352-1.632-4.984-2.816-7.76-3.512
		c-7.36-1.992-14.416-4.976-20.976-8.864c-4.112-3.168-6.456-8.104-6.32-13.288c-0.048-5.368,2.176-10.504,6.128-14.144
		c7.024-5.992,16.136-8.968,25.344-8.28c7.072-0.472,14.128,1.232,20.2,4.888c4.48,3.128,7.584,7.864,8.664,13.224l-17.264,3
		c-0.776-2.344-2.344-4.352-4.432-5.672c-3.048-1.76-6.52-2.64-10.04-2.536c-2.952-0.248-5.896,0.432-8.44,1.952
		c-1.544,0.992-2.504,2.672-2.568,4.504c0.032,1.792,1.024,3.432,2.6,4.296c3.384,1.536,6.896,2.752,10.496,3.648
		c6.528,1.48,12.728,4.136,18.312,7.824c4.088,3.088,6.496,7.912,6.512,13.032c-0.04,6.648-3.08,12.928-8.272,17.08
		c-6.632,5.176-14.936,7.736-23.328,7.2c-8.104,0.488-16.176-1.424-23.2-5.504C301.68,293.784,297.744,288.304,296,282z"/>
</g>
<g>
	<rect x="112" y="417.92" style="fill:#CCCCCC;" width="288" height="8"/>
	<rect x="112" y="451.68" style="fill:#CCCCCC;" width="288" height="8"/>
	<rect x="112" y="384.16" style="fill:#CCCCCC;" width="288" height="8"/>
	<rect x="112" y="350.44" style="fill:#CCCCCC;" width="288" height="8"/>
</g>
</svg>